<svg width="44" height="41" viewBox="0 0 44 41" fill="none" xmlns="http://www.w3.org/2000/svg">
<path d="M42.8334 17.875V16.2448C42.8334 12.2039 42.8334 10.1835 41.613 8.92814C40.3926 7.6728 38.4284 7.6728 34.5001 7.6728H30.1697C28.2584 7.6728 28.2426 7.66909 26.524 6.80905L19.5832 3.33572C16.6852 1.88551 15.2362 1.16041 13.6925 1.2108C12.1489 1.2612 10.7475 2.07934 7.94477 3.71566L5.38671 5.20911C3.32798 6.41103 2.2986 7.01201 1.73266 8.01176C1.16675 9.01153 1.16675 10.229 1.16675 12.664V29.7827C1.16675 32.9821 1.16675 34.5819 1.87979 35.4723C2.35427 36.0646 3.01917 36.4629 3.75425 36.595C4.85896 36.7933 6.2115 36.0038 8.91648 34.4244C10.7533 33.3521 12.5211 32.2383 14.7186 32.5404C16.5599 32.7933 18.2709 33.9552 19.9167 34.7788" stroke="black" stroke-width="1.5" stroke-linecap="round" stroke-linejoin="round"/>
<path d="M13.6667 1.20834V32.4583" stroke="black" stroke-width="1.5" stroke-linejoin="round"/>
<path d="M28.25 7.45834V15.7917" stroke="black" stroke-width="1.5" stroke-linecap="round" stroke-linejoin="round"/>
<path d="M42 34.3278C39.4985 40.256 31.3641 41.9835 26.7014 37.3641C22.1295 32.8347 23.5449 24.6288 29.5565 22" stroke="black" stroke-width="1.5" stroke-linecap="round"/>
<path d="M39.1831 31C41.0708 31 42.0146 31 42.6241 30.155C42.6469 30.1234 42.6848 30.0667 42.7052 30.0336C43.2527 29.1471 42.9705 28.466 42.4063 27.1038C41.8946 25.8685 41.1447 24.7462 40.1993 23.8007C39.2538 22.8553 38.1315 22.1054 36.8962 21.5937C35.534 21.0295 34.8529 20.7473 33.9664 21.2948C33.9333 21.3152 33.8766 21.3531 33.845 21.3759C33 21.9854 33 22.9292 33 24.8169V26.9275C33 28.8473 33 29.8072 33.5964 30.4036C34.1928 31 35.1527 31 37.0725 31H39.1831Z" stroke="black" stroke-width="1.5"/>
</svg>
